<svg width="48" height="45" viewBox="0 0 48 45" fill="none" xmlns="http://www.w3.org/2000/svg">
<path fill-rule="evenodd" clip-rule="evenodd" d="M0 22.5886C0 34.966 10.7452 44.9999 24 44.9999C37.2548 44.9999 48 34.966 48 22.5886C48 10.2111 37.2548 0.177246 24 0.177246C10.7452 0.177246 0 10.2111 0 22.5886ZM19.6 32.8606L20.0083 27.1478L20.008 27.1476L31.1369 17.7694C31.6253 17.3646 31.0303 17.1672 30.3819 17.5344L16.6473 25.6258L10.7147 23.8967C9.4335 23.5304 9.4243 22.7083 11.0023 22.1173L34.1203 13.7931C35.1762 13.3455 36.1953 14.0299 35.7922 15.539L31.8552 32.8635C31.5803 34.0946 30.7837 34.389 29.68 33.8204L23.6827 29.6828L20.8 32.3003C20.7909 32.3086 20.7819 32.3168 20.7729 32.325C20.4505 32.6181 20.1837 32.8606 19.6 32.8606Z" fill="#EDEEF3"/>
</svg>
