<svg width="48" height="45" viewBox="0 0 48 45" fill="none" xmlns="http://www.w3.org/2000/svg">
<path fill-rule="evenodd" clip-rule="evenodd" d="M24 0C37.2548 0 48 10.0339 48 22.4113C48 34.7887 37.2548 44.8226 24 44.8226C10.7452 44.8226 0 34.7887 0 22.4113C0 10.0339 10.7452 0 24 0ZM30.3941 19.5711C30.2774 18.6855 29.9859 17.9902 29.4683 17.3743C28.7961 16.5812 27.9372 16.1063 26.6655 15.8246C25.8368 15.6369 25.5019 15.6584 25.2022 15.9141C24.923 16.1536 24.8685 16.6338 25.0818 16.9448C25.2319 17.1705 25.405 17.2513 25.8864 17.3396C26.5275 17.4497 26.9706 17.5927 27.3736 17.8079C28.229 18.2691 28.6274 18.9909 28.6701 20.1594C28.69 20.7081 28.7408 20.8767 28.946 21.0713C29.3263 21.427 30.0032 21.3579 30.2904 20.9322C30.3957 20.7717 30.4118 20.7019 30.4229 20.3294C30.4303 20.0987 30.4197 19.7554 30.3941 19.5711ZM30.4055 14.1379C32.4393 15.6737 33.5757 17.8565 33.7446 20.5695C33.8157 21.6381 33.7213 21.9861 33.3176 22.1844C32.9533 22.3681 32.5405 22.3076 32.2573 22.0311C32.0697 21.8512 31.9977 21.6052 32.0005 21.1696C32.0087 19.9652 31.7116 18.6202 31.2284 17.6869C30.6693 16.6007 29.8049 15.6764 28.7176 15.0005C27.7652 14.407 26.5047 14.006 25.2826 13.9062C24.4898 13.8414 24.2068 13.716 24.0546 13.3612C23.9603 13.1489 23.9852 12.7819 24.0958 12.6175C24.2002 12.466 24.4347 12.2983 24.6005 12.254C24.7762 12.2062 25.8001 12.2898 26.3563 12.3931C27.8745 12.6816 29.2596 13.275 30.4055 14.1379ZM37.4522 31.0176C37.3954 30.8625 37.2628 30.6233 37.1681 30.486C36.5712 29.6443 33.3645 27.3009 31.7635 26.5345C30.8493 26.096 30.172 25.9499 29.6699 26.0871C29.1299 26.2289 28.8457 26.4637 27.941 27.5136C27.5763 27.9344 27.2021 28.3287 27.1026 28.3906C26.8563 28.5501 26.3732 28.6786 26.0321 28.6786C25.2411 28.6741 23.8059 28.1957 22.7022 27.5667C21.8449 27.0795 20.746 26.2068 19.9029 25.3429C18.9081 24.3285 18.2308 23.4337 17.6955 22.4237C17.004 21.1258 16.8288 20.3328 17.1177 19.7525C17.1887 19.6063 17.2835 19.4513 17.326 19.4025C17.3687 19.3583 17.814 19.0171 18.3065 18.645C19.2729 17.9274 19.4292 17.7635 19.6091 17.2718C19.8365 16.6471 19.775 16.0093 19.4244 15.367C19.1544 14.8796 18.4487 13.8165 17.9371 13.1299C17.2598 12.2262 15.5735 10.2948 15.2372 10.0334C14.6309 9.57273 13.8541 9.49295 12.9967 9.8031C12.0921 10.1309 10.3963 11.4067 9.67156 12.2971C9.0179 13.1033 8.76693 13.6747 8.729 14.4278C8.69587 15.048 8.75269 15.3049 9.10321 16.0979C11.8458 22.3173 15.9382 27.2832 21.5607 31.2258C24.4974 33.2856 27.5431 34.8538 30.7025 35.9259C32.545 36.5504 33.3455 36.5814 34.2881 36.0676C34.686 35.8461 35.6712 34.9025 36.2207 34.2159C37.1301 33.073 37.4665 32.5459 37.5612 32.125C37.6275 31.8371 37.5754 31.3366 37.4522 31.0176ZM36.2411 16.9957C36.8181 18.3992 37.0948 19.658 37.1555 21.1926C37.1651 21.4958 37.1606 22.0513 37.1396 22.4275C37.0958 23.1488 37.0539 23.2921 36.8315 23.4829C36.4741 23.7961 35.7774 23.7215 35.5132 23.3441C35.3752 23.1416 35.3559 22.9933 35.3825 22.1505C35.4592 19.6578 34.9193 17.706 33.6187 15.7544C32.0645 13.4129 29.7398 11.8355 26.7168 11.0639C25.9459 10.8675 25.2962 10.7477 24.2858 10.6207C23.6276 10.5403 23.4835 10.5063 23.321 10.4129C22.8303 10.1194 22.8238 9.37621 23.313 9.07825C23.5654 8.92096 23.7516 8.91393 24.5744 9.01233C26.9872 9.29389 29.1402 9.96338 30.9093 10.9751C32.1773 11.7012 32.9769 12.3535 34.0062 13.4959C35.095 14.7144 35.6715 15.6152 36.2411 16.9957Z" fill="#EDEEF3"/>
</svg>
